<svg id="visual" viewBox="0 0 900 600" width="900" height="600" xmlns="http://www.w3.org/2000/svg" xmlns:xlink="http://www.w3.org/1999/xlink" version="1.1"><rect x="0" y="0" width="900" height="600" fill="#001220"></rect><path d="M0 305L21.5 322C43 339 86 373 128.8 384.5C171.7 396 214.3 385 257.2 368.8C300 352.7 343 331.3 385.8 334.5C428.7 337.7 471.3 365.3 514.2 365.7C557 366 600 339 642.8 340.3C685.7 341.7 728.3 371.3 771.2 381.8C814 392.3 857 383.7 878.5 379.3L900 375L900 601L878.5 601C857 601 814 601 771.2 601C728.3 601 685.7 601 642.8 601C600 601 557 601 514.2 601C471.3 601 428.7 601 385.8 601C343 601 300 601 257.2 601C214.3 601 171.7 601 128.8 601C86 601 43 601 21.5 601L0 601Z" fill="#fa7268"></path><path d="M0 424L21.5 417.7C43 411.3 86 398.7 128.8 396.2C171.7 393.7 214.3 401.3 257.2 396.7C300 392 343 375 385.8 371C428.7 367 471.3 376 514.2 389.7C557 403.3 600 421.7 642.8 424.2C685.7 426.7 728.3 413.3 771.2 413.7C814 414 857 428 878.5 435L900 442L900 601L878.5 601C857 601 814 601 771.2 601C728.3 601 685.7 601 642.8 601C600 601 557 601 514.2 601C471.3 601 428.7 601 385.8 601C343 601 300 601 257.2 601C214.3 601 171.7 601 128.8 601C86 601 43 601 21.5 601L0 601Z" fill="#ef5f67"></path><path d="M0 428L21.5 434.2C43 440.3 86 452.7 128.8 453.8C171.7 455 214.3 445 257.2 444.2C300 443.3 343 451.7 385.8 459.8C428.7 468 471.3 476 514.2 472C557 468 600 452 642.8 446.3C685.7 440.7 728.3 445.3 771.2 442C814 438.7 857 427.3 878.5 421.7L900 416L900 601L878.5 601C857 601 814 601 771.2 601C728.3 601 685.7 601 642.8 601C600 601 557 601 514.2 601C471.3 601 428.7 601 385.8 601C343 601 300 601 257.2 601C214.3 601 171.7 601 128.8 601C86 601 43 601 21.5 601L0 601Z" fill="#e34c67"></path><path d="M0 464L21.5 471.7C43 479.3 86 494.7 128.8 499.7C171.7 504.7 214.3 499.3 257.2 496.3C300 493.3 343 492.7 385.8 491.7C428.7 490.7 471.3 489.3 514.2 489.2C557 489 600 490 642.8 493.2C685.7 496.3 728.3 501.7 771.2 505.5C814 509.3 857 511.7 878.5 512.8L900 514L900 601L878.5 601C857 601 814 601 771.2 601C728.3 601 685.7 601 642.8 601C600 601 557 601 514.2 601C471.3 601 428.7 601 385.8 601C343 601 300 601 257.2 601C214.3 601 171.7 601 128.8 601C86 601 43 601 21.5 601L0 601Z" fill="#d53867"></path><path d="M0 549L21.5 546.8C43 544.7 86 540.3 128.8 541.8C171.7 543.3 214.3 550.7 257.2 554.7C300 558.7 343 559.3 385.8 559.2C428.7 559 471.3 558 514.2 558.3C557 558.7 600 560.3 642.8 554.2C685.7 548 728.3 534 771.2 533.7C814 533.3 857 546.7 878.5 553.3L900 560L900 601L878.5 601C857 601 814 601 771.2 601C728.3 601 685.7 601 642.8 601C600 601 557 601 514.2 601C471.3 601 428.7 601 385.8 601C343 601 300 601 257.2 601C214.3 601 171.7 601 128.8 601C86 601 43 601 21.5 601L0 601Z" fill="#c62368"></path></svg>